<mxfile host="app.diagrams.net" modified="2020-08-06T08:18:49.476Z" agent="5.0 (X11)" etag="s_HfEDX8K9jF-mwJ5Hjs" version="13.6.0" type="github">
  <diagram name="Page-1" id="e7e014a7-5840-1c2e-5031-d8a46d1fe8dd">
    <mxGraphModel dx="1422" dy="803" grid="1" gridSize="10" guides="1" tooltips="1" connect="1" arrows="1" fold="1" page="1" pageScale="1" pageWidth="1169" pageHeight="826" background="#ffffff" math="0" shadow="0">
      <root>
        <mxCell id="0" />
        <mxCell id="1" parent="0" />
        <mxCell id="2" value="ycsbc.cc" style="swimlane;whiteSpace=wrap" parent="1" vertex="1">
          <mxGeometry x="20" y="40" width="280" height="570" as="geometry" />
        </mxCell>
        <mxCell id="5" value="" style="ellipse;shape=startState;fillColor=#000000;strokeColor=#ff0000;" parent="2" vertex="1">
          <mxGeometry x="100" y="40" width="30" height="30" as="geometry" />
        </mxCell>
        <mxCell id="6" value="" style="edgeStyle=elbowEdgeStyle;elbow=horizontal;verticalAlign=bottom;endArrow=open;endSize=8;strokeColor=#FF0000;endFill=1;rounded=0" parent="2" source="5" target="7" edge="1">
          <mxGeometry x="100" y="40" as="geometry">
            <mxPoint x="115" y="110" as="targetPoint" />
          </mxGeometry>
        </mxCell>
        <mxCell id="7" value="DelegateClient()" style="" parent="2" vertex="1">
          <mxGeometry x="60" y="110" width="110" height="50" as="geometry" />
        </mxCell>
        <mxCell id="3" value="client.h" style="swimlane;whiteSpace=wrap" parent="1" vertex="1">
          <mxGeometry x="300" y="40" width="280" height="570" as="geometry">
            <mxRectangle x="320" y="40" width="80" height="23" as="alternateBounds" />
          </mxGeometry>
        </mxCell>
        <mxCell id="MHQlWUMJeaWAEZyj36-t-57" style="edgeStyle=orthogonalEdgeStyle;rounded=0;orthogonalLoop=1;jettySize=auto;html=1;exitX=0.5;exitY=1;exitDx=0;exitDy=0;entryX=0.5;entryY=0;entryDx=0;entryDy=0;endArrow=classic;endFill=1;fontSize=10;" parent="3" source="16" target="MHQlWUMJeaWAEZyj36-t-56" edge="1">
          <mxGeometry relative="1" as="geometry" />
        </mxCell>
        <mxCell id="16" value="TransactionInsert()" style="" parent="3" vertex="1">
          <mxGeometry x="143" y="200" width="130" height="40" as="geometry" />
        </mxCell>
        <mxCell id="MHQlWUMJeaWAEZyj36-t-45" style="edgeStyle=orthogonalEdgeStyle;rounded=0;orthogonalLoop=1;jettySize=auto;html=1;exitX=0.75;exitY=0.5;exitDx=0;exitDy=0;exitPerimeter=0;entryX=0.5;entryY=0;entryDx=0;entryDy=0;" parent="3" source="25" target="16" edge="1">
          <mxGeometry relative="1" as="geometry" />
        </mxCell>
        <mxCell id="MHQlWUMJeaWAEZyj36-t-47" style="edgeStyle=orthogonalEdgeStyle;rounded=0;orthogonalLoop=1;jettySize=auto;html=1;exitX=0.25;exitY=0.5;exitDx=0;exitDy=0;exitPerimeter=0;entryX=0.5;entryY=0;entryDx=0;entryDy=0;" parent="3" source="25" target="MHQlWUMJeaWAEZyj36-t-46" edge="1">
          <mxGeometry relative="1" as="geometry" />
        </mxCell>
        <mxCell id="25" value="" style="shape=line;strokeWidth=6;strokeColor=#ff0000;rotation=0;" parent="3" vertex="1">
          <mxGeometry x="115" y="130" width="50" height="15" as="geometry" />
        </mxCell>
        <mxCell id="MHQlWUMJeaWAEZyj36-t-46" value="Alternative&#xa;Operation" style="" parent="3" vertex="1">
          <mxGeometry x="7" y="200" width="130" height="40" as="geometry" />
        </mxCell>
        <mxCell id="MHQlWUMJeaWAEZyj36-t-49" style="edgeStyle=orthogonalEdgeStyle;rounded=0;orthogonalLoop=1;jettySize=auto;html=1;exitX=0.5;exitY=0;exitDx=0;exitDy=0;exitPerimeter=0;entryX=0.5;entryY=1;entryDx=0;entryDy=0;fontSize=10;dashed=1;endArrow=none;endFill=0;" parent="3" source="MHQlWUMJeaWAEZyj36-t-48" target="MHQlWUMJeaWAEZyj36-t-46" edge="1">
          <mxGeometry relative="1" as="geometry" />
        </mxCell>
        <mxCell id="MHQlWUMJeaWAEZyj36-t-48" value="Read&#xa;Update&#xa;Scan&#xa;ReadModifyWrite" style="shape=note;whiteSpace=wrap;size=17;fontSize=10;" parent="3" vertex="1">
          <mxGeometry x="15" y="260" width="100" height="50" as="geometry" />
        </mxCell>
        <mxCell id="MHQlWUMJeaWAEZyj36-t-56" value="NextSequenceKey()" style="" parent="3" vertex="1">
          <mxGeometry x="115" y="330" width="143" height="40" as="geometry" />
        </mxCell>
        <mxCell id="15" value="DoTransaction()" style="" parent="3" vertex="1">
          <mxGeometry x="85" y="40" width="110" height="50" as="geometry" />
        </mxCell>
        <mxCell id="MHQlWUMJeaWAEZyj36-t-44" style="edgeStyle=orthogonalEdgeStyle;rounded=0;orthogonalLoop=1;jettySize=auto;html=1;exitX=0.5;exitY=1;exitDx=0;exitDy=0;entryX=0.5;entryY=0.333;entryDx=0;entryDy=0;entryPerimeter=0;" parent="3" source="15" target="25" edge="1">
          <mxGeometry relative="1" as="geometry" />
        </mxCell>
        <mxCell id="4" value="core_workload.cc" style="swimlane;whiteSpace=wrap" parent="1" vertex="1">
          <mxGeometry x="580" y="40" width="280" height="570" as="geometry" />
        </mxCell>
        <mxCell id="MHQlWUMJeaWAEZyj36-t-69" style="edgeStyle=orthogonalEdgeStyle;rounded=0;orthogonalLoop=1;jettySize=auto;html=1;exitX=0.5;exitY=1;exitDx=0;exitDy=0;endArrow=classic;endFill=1;fontSize=10;" parent="4" source="33" edge="1">
          <mxGeometry relative="1" as="geometry">
            <mxPoint x="153" y="270" as="targetPoint" />
          </mxGeometry>
        </mxCell>
        <mxCell id="33" value="BuildValues()" style="" parent="4" vertex="1">
          <mxGeometry x="98" y="120" width="110" height="50" as="geometry" />
        </mxCell>
        <mxCell id="MHQlWUMJeaWAEZyj36-t-61" value="rand() % 94 + 33" style="shape=note;whiteSpace=wrap;size=17;fontSize=11;" parent="4" vertex="1">
          <mxGeometry x="80" y="480" width="120" height="60" as="geometry" />
        </mxCell>
        <mxCell id="MHQlWUMJeaWAEZyj36-t-62" style="edgeStyle=orthogonalEdgeStyle;rounded=0;orthogonalLoop=1;jettySize=auto;html=1;entryX=0.5;entryY=0;entryDx=0;entryDy=0;fontSize=10;dashed=1;endArrow=none;endFill=0;entryPerimeter=0;exitX=0.5;exitY=1;exitDx=0;exitDy=0;" parent="4" source="MHQlWUMJeaWAEZyj36-t-66" target="MHQlWUMJeaWAEZyj36-t-61" edge="1">
          <mxGeometry relative="1" as="geometry">
            <mxPoint x="153" y="130" as="sourcePoint" />
            <mxPoint x="-190" y="250" as="targetPoint" />
          </mxGeometry>
        </mxCell>
        <mxCell id="MHQlWUMJeaWAEZyj36-t-63" value="i &amp;lt; field_count_" style="rhombus;whiteSpace=wrap;html=1;fillColor=#ffffc0;strokeColor=#ff0000;fontSize=10;" parent="4" vertex="1">
          <mxGeometry x="80" y="310" width="120" height="60" as="geometry" />
        </mxCell>
        <mxCell id="MHQlWUMJeaWAEZyj36-t-65" value="yes" style="edgeStyle=orthogonalEdgeStyle;html=1;align=left;verticalAlign=top;endArrow=open;endSize=8;strokeColor=#ff0000;fontSize=10;entryX=0.5;entryY=0;entryDx=0;entryDy=0;" parent="4" source="MHQlWUMJeaWAEZyj36-t-63" target="MHQlWUMJeaWAEZyj36-t-66" edge="1">
          <mxGeometry x="-1" relative="1" as="geometry">
            <mxPoint x="110" y="390" as="targetPoint" />
          </mxGeometry>
        </mxCell>
        <mxCell id="MHQlWUMJeaWAEZyj36-t-68" style="edgeStyle=orthogonalEdgeStyle;rounded=0;orthogonalLoop=1;jettySize=auto;html=1;exitX=0.25;exitY=0;exitDx=0;exitDy=0;endArrow=classic;endFill=1;fontSize=10;" parent="4" source="MHQlWUMJeaWAEZyj36-t-66" edge="1">
          <mxGeometry relative="1" as="geometry">
            <mxPoint x="128" y="270" as="targetPoint" />
            <Array as="points">
              <mxPoint x="60" y="413" />
              <mxPoint x="60" y="240" />
              <mxPoint x="128" y="240" />
            </Array>
          </mxGeometry>
        </mxCell>
        <mxCell id="MHQlWUMJeaWAEZyj36-t-66" value="append(RandomPrintChar())" style="" parent="4" vertex="1">
          <mxGeometry x="50" y="413" width="180" height="40" as="geometry" />
        </mxCell>
        <mxCell id="MHQlWUMJeaWAEZyj36-t-70" style="edgeStyle=orthogonalEdgeStyle;rounded=0;orthogonalLoop=1;jettySize=auto;html=1;entryX=0.5;entryY=0;entryDx=0;entryDy=0;endArrow=classic;endFill=1;fontSize=10;exitX=0.503;exitY=0.714;exitDx=0;exitDy=0;exitPerimeter=0;" parent="4" source="MHQlWUMJeaWAEZyj36-t-67" target="MHQlWUMJeaWAEZyj36-t-63" edge="1">
          <mxGeometry relative="1" as="geometry" />
        </mxCell>
        <mxCell id="MHQlWUMJeaWAEZyj36-t-67" value="" style="shape=line;strokeWidth=6;strokeColor=#ff0000;rotation=0;" parent="4" vertex="1">
          <mxGeometry x="115" y="267" width="50" height="10" as="geometry" />
        </mxCell>
        <mxCell id="MHQlWUMJeaWAEZyj36-t-50" value="fabric_db.cc" style="swimlane;whiteSpace=wrap" parent="1" vertex="1">
          <mxGeometry x="860" y="40" width="280" height="570" as="geometry" />
        </mxCell>
        <mxCell id="MHQlWUMJeaWAEZyj36-t-53" value="" style="ellipse;shape=endState;fillColor=#000000;strokeColor=#ff0000;direction=south;" parent="MHQlWUMJeaWAEZyj36-t-50" vertex="1">
          <mxGeometry x="125" y="500" width="30" height="30" as="geometry" />
        </mxCell>
        <mxCell id="MHQlWUMJeaWAEZyj36-t-54" value="" style="endArrow=open;strokeColor=#FF0000;endFill=1;rounded=0;exitX=0.5;exitY=1;exitDx=0;exitDy=0;" parent="MHQlWUMJeaWAEZyj36-t-50" source="MHQlWUMJeaWAEZyj36-t-75" target="MHQlWUMJeaWAEZyj36-t-53" edge="1">
          <mxGeometry relative="1" as="geometry">
            <mxPoint x="145" y="455" as="sourcePoint" />
          </mxGeometry>
        </mxCell>
        <mxCell id="MHQlWUMJeaWAEZyj36-t-73" style="edgeStyle=orthogonalEdgeStyle;rounded=0;orthogonalLoop=1;jettySize=auto;html=1;exitX=0.5;exitY=1;exitDx=0;exitDy=0;entryX=0.5;entryY=0;entryDx=0;entryDy=0;endArrow=classic;endFill=1;fontSize=10;" parent="MHQlWUMJeaWAEZyj36-t-50" source="MHQlWUMJeaWAEZyj36-t-71" target="MHQlWUMJeaWAEZyj36-t-72" edge="1">
          <mxGeometry relative="1" as="geometry" />
        </mxCell>
        <mxCell id="MHQlWUMJeaWAEZyj36-t-71" value="Insert(key,values)" style="" parent="MHQlWUMJeaWAEZyj36-t-50" vertex="1">
          <mxGeometry x="82.5" y="120" width="115" height="50" as="geometry" />
        </mxCell>
        <mxCell id="MHQlWUMJeaWAEZyj36-t-76" style="edgeStyle=orthogonalEdgeStyle;rounded=0;orthogonalLoop=1;jettySize=auto;html=1;exitX=0.5;exitY=1;exitDx=0;exitDy=0;entryX=0.5;entryY=0;entryDx=0;entryDy=0;endArrow=classic;endFill=1;fontSize=10;" parent="MHQlWUMJeaWAEZyj36-t-50" source="MHQlWUMJeaWAEZyj36-t-72" target="MHQlWUMJeaWAEZyj36-t-75" edge="1">
          <mxGeometry relative="1" as="geometry" />
        </mxCell>
        <mxCell id="MHQlWUMJeaWAEZyj36-t-72" value="Update(key,values)" style="" parent="MHQlWUMJeaWAEZyj36-t-50" vertex="1">
          <mxGeometry x="77.5" y="210" width="125" height="50" as="geometry" />
        </mxCell>
        <mxCell id="MHQlWUMJeaWAEZyj36-t-75" value="node fabric-v1.4-node/invoke_kv.js &#xa;&lt;orderer&gt; &lt;peer&gt; write &lt;key&gt; &lt;val&gt;" style="" parent="MHQlWUMJeaWAEZyj36-t-50" vertex="1">
          <mxGeometry x="10" y="320" width="260" height="50" as="geometry" />
        </mxCell>
        <mxCell id="MHQlWUMJeaWAEZyj36-t-78" value="val = &#39;1=42_2=50_&#39;" style="shape=note;whiteSpace=wrap;size=17;fontSize=11;" parent="MHQlWUMJeaWAEZyj36-t-50" vertex="1">
          <mxGeometry x="153" y="410" width="120" height="50" as="geometry" />
        </mxCell>
        <mxCell id="MHQlWUMJeaWAEZyj36-t-79" style="edgeStyle=orthogonalEdgeStyle;rounded=0;orthogonalLoop=1;jettySize=auto;html=1;fontSize=10;dashed=1;endArrow=none;endFill=0;exitX=0.75;exitY=1;exitDx=0;exitDy=0;entryX=0;entryY=0;entryDx=51.5;entryDy=0;entryPerimeter=0;" parent="MHQlWUMJeaWAEZyj36-t-50" source="MHQlWUMJeaWAEZyj36-t-75" target="MHQlWUMJeaWAEZyj36-t-78" edge="1">
          <mxGeometry relative="1" as="geometry">
            <mxPoint x="-130" y="463" as="sourcePoint" />
            <mxPoint x="240" y="390" as="targetPoint" />
            <Array as="points">
              <mxPoint x="240" y="370" />
              <mxPoint x="240" y="410" />
            </Array>
          </mxGeometry>
        </mxCell>
        <mxCell id="MHQlWUMJeaWAEZyj36-t-55" style="edgeStyle=orthogonalEdgeStyle;rounded=0;orthogonalLoop=1;jettySize=auto;html=1;exitX=1;exitY=0.5;exitDx=0;exitDy=0;entryX=0;entryY=0.5;entryDx=0;entryDy=0;endArrow=classic;endFill=1;fontSize=10;" parent="1" source="MHQlWUMJeaWAEZyj36-t-56" target="33" edge="1">
          <mxGeometry relative="1" as="geometry">
            <Array as="points">
              <mxPoint x="610" y="390" />
              <mxPoint x="610" y="185" />
            </Array>
          </mxGeometry>
        </mxCell>
        <mxCell id="MHQlWUMJeaWAEZyj36-t-60" style="edgeStyle=orthogonalEdgeStyle;rounded=0;orthogonalLoop=1;jettySize=auto;html=1;exitX=1;exitY=0.5;exitDx=0;exitDy=0;entryX=0;entryY=0.5;entryDx=0;entryDy=0;endArrow=classic;endFill=1;fontSize=10;" parent="1" source="7" target="15" edge="1">
          <mxGeometry relative="1" as="geometry">
            <Array as="points">
              <mxPoint x="270" y="175" />
              <mxPoint x="270" y="105" />
            </Array>
          </mxGeometry>
        </mxCell>
        <mxCell id="MHQlWUMJeaWAEZyj36-t-64" value="no" style="edgeStyle=orthogonalEdgeStyle;html=1;align=left;verticalAlign=bottom;endArrow=open;endSize=8;strokeColor=#ff0000;fontSize=10;entryX=0;entryY=0.5;entryDx=0;entryDy=0;" parent="1" source="MHQlWUMJeaWAEZyj36-t-63" target="MHQlWUMJeaWAEZyj36-t-71" edge="1">
          <mxGeometry x="-1" relative="1" as="geometry">
            <mxPoint x="830" y="350" as="targetPoint" />
            <Array as="points">
              <mxPoint x="830" y="380" />
              <mxPoint x="830" y="185" />
            </Array>
          </mxGeometry>
        </mxCell>
      </root>
    </mxGraphModel>
  </diagram>
</mxfile>
